<?xml version="1.0" standalone="no"?>
<!DOCTYPE svg PUBLIC "-//W3C//DTD SVG 20010904//EN"
 "http://www.w3.org/TR/2001/REC-SVG-20010904/DTD/svg10.dtd">
<svg version="1.0" xmlns="http://www.w3.org/2000/svg"
 width="683.000000pt" height="670.000000pt" viewBox="0 0 683.000000 670.000000"
 preserveAspectRatio="xMidYMid meet">

<g transform="translate(0.000000,670.000000) scale(0.100000,-0.100000)"
fill="#000000" stroke="none">
<path d="M2107 6563 c-2 -1 -113 -3 -248 -4 -134 0 -274 -4 -311 -8 -37 -4
-73 -4 -80 0 -7 4 -31 4 -53 0 -64 -10 -69 -30 -56 -229 6 -92 16 -187 22
-212 19 -85 75 -182 161 -280 161 -185 169 -200 176 -341 3 -73 1 -108 -7
-113 -6 -4 -11 -29 -11 -56 0 -40 4 -51 21 -60 20 -11 20 -13 14 -548 -3 -295
-8 -564 -10 -597 -2 -33 -4 -101 -4 -152 -1 -82 -3 -92 -20 -98 -24 -7 -37
-41 -23 -58 5 -7 12 -108 14 -225 5 -227 -1 -262 -48 -304 -76 -67 -280 -94
-482 -64 -108 16 -130 13 -139 -22 -5 -20 0 -30 20 -46 20 -17 28 -35 36 -86
l10 -65 -4 70 c-6 100 10 40 19 -70 38 -494 83 -679 221 -906 25 -42 25 -43 2
-16 -24 29 -92 157 -121 231 -42 104 -66 223 -99 501 -3 23 -4 20 -6 -12 -2
-58 25 -255 45 -328 9 -33 20 -78 25 -100 23 -97 198 -405 231 -405 13 0 9 8
-23 45 -17 19 -29 35 -26 35 3 0 34 -33 68 -72 35 -40 56 -67 47 -59 -10 7
-18 9 -18 3 0 -23 182 -163 278 -212 61 -32 90 -28 187 24 297 157 476 403
568 781 21 81 62 323 82 475 16 122 27 160 45 160 18 0 38 30 33 50 -9 33 -38
43 -106 34 -34 -4 -114 -6 -177 -6 -180 2 -275 39 -331 128 -20 33 -21 47 -21
234 1 126 5 207 12 220 10 18 7 25 -20 50 l-31 29 6 603 c7 713 9 754 32 781
20 21 24 72 9 102 -12 25 -9 178 6 225 20 64 45 104 137 218 149 186 173 240
198 462 8 74 16 149 18 165 5 38 -11 99 -28 114 -18 15 -85 22 -106 12 -9 -4
-42 -5 -74 -2 -32 4 -59 6 -60 4z m193 -84 c0 -23 -3 -26 -25 -21 -14 2 -32
-1 -40 -8 -13 -11 -15 -8 -15 17 0 37 1 38 44 38 32 0 36 -3 36 -26z m-860 -9
c0 -28 -2 -30 -32 -25 -20 4 -34 1 -39 -7 -6 -8 -9 -2 -9 19 0 29 3 32 38 36
20 2 38 4 40 5 1 1 2 -12 2 -28z m727 4 c6 -18 -74 -24 -330 -24 -191 1 -237
-2 -231 -12 6 -10 5 -10 -7 -2 -8 6 -21 10 -29 9 -73 -13 -81 -13 -87 1 -3 8
-3 21 1 29 5 13 49 15 342 13 237 -2 338 -6 341 -14z m30 -16 c-3 -7 -5 -2 -5
12 0 14 2 19 5 13 2 -7 2 -19 0 -25z m100 -150 c-2 -18 -4 -4 -4 32 0 36 2 50
4 33 2 -18 2 -48 0 -65z m-60 -16 c-10 -163 -47 -235 -218 -418 -89 -95 -152
-181 -146 -198 2 -6 -2 -16 -9 -23 -14 -15 -28 -126 -22 -178 2 -19 1 -35 -4
-35 -4 0 -5 -7 -2 -15 4 -8 1 -16 -5 -16 -45 -5 -45 -6 -48 56 -4 74 -9 89
-28 81 -8 -3 -15 -2 -15 3 0 16 13 20 33 9 21 -11 21 -10 4 15 -20 31 -22 51
-4 40 6 -4 4 5 -5 20 -23 34 -23 40 2 32 53 -17 6 56 -124 190 -165 171 -206
253 -211 425 l-3 105 8 -105 c5 -66 16 -126 29 -161 29 -77 104 -178 201 -274
45 -44 98 -106 117 -137 38 -61 50 -69 60 -40 16 44 79 126 173 227 163 175
197 241 207 403 3 50 8 92 11 92 3 0 2 -44 -1 -98z m-860 -19 c-2 -21 -4 -4
-4 37 0 41 2 58 4 38 2 -21 2 -55 0 -75z m33 50 c1 -5 3 -26 6 -48 4 -27 3
-37 -4 -30 -13 13 -22 85 -11 85 5 0 9 -3 9 -7z m860 -13 c0 -5 -4 -10 -10
-10 -5 0 -10 5 -10 10 0 6 5 10 10 10 6 0 10 -4 10 -10z m-56 -47 c-16 -135
-59 -211 -203 -363 -50 -52 -105 -116 -123 -142 -18 -26 -35 -48 -38 -48 -3 0
-14 14 -23 30 -10 17 -69 83 -130 148 -73 76 -121 137 -138 172 -29 59 -49
140 -49 194 l0 34 93 5 c50 2 200 5 331 6 132 1 242 4 245 6 2 3 12 5 22 5 16
0 18 -6 13 -47z m56 -6 c0 -5 -4 -5 -10 -2 -5 3 -10 14 -10 23 0 15 2 15 10 2
5 -8 10 -19 10 -23z m17 -49 c-2 -13 -4 -5 -4 17 -1 22 1 32 4 23 2 -10 2 -28
0 -40z m-900 -30 c-2 -13 -4 -5 -4 17 -1 22 1 32 4 23 2 -10 2 -28 0 -40z m29
22 c-1 -16 1 -30 4 -30 4 0 11 -16 17 -35 6 -20 7 -35 2 -35 -5 0 -9 8 -9 18
0 9 -7 26 -15 36 -16 22 -20 76 -6 76 5 0 8 -13 7 -30z m844 -31 c0 -13 -4
-18 -12 -13 -7 4 -8 3 -4 -4 4 -7 2 -20 -3 -29 -9 -16 -10 -15 -11 5 0 23 16
62 25 62 3 0 5 -9 5 -21z m15 -29 c-9 -41 -17 -33 -9 9 4 17 9 30 11 27 3 -2
2 -19 -2 -36z m-863 -49 c10 -32 33 -82 53 -111 47 -70 47 -70 40 -70 -3 0
-23 27 -44 60 -38 58 -87 180 -73 180 4 0 15 -26 24 -59z m818 -1 c0 -5 -5
-10 -11 -10 -5 0 -7 5 -4 10 3 6 8 10 11 10 2 0 4 -4 4 -10z m21 -17 c-12 -20
-14 -14 -5 12 4 9 9 14 11 11 3 -2 0 -13 -6 -23z m-788 -14 c8 -29 -9 -32 -22
-3 -14 32 -14 35 3 28 8 -3 16 -14 19 -25z m710 -58 c-11 -9 -22 -23 -26 -31
-4 -12 -6 -12 -6 2 -1 9 8 23 19 31 11 8 17 17 12 22 -4 5 -1 5 7 0 12 -7 11
-11 -6 -24z m-676 3 c-3 -3 -12 -4 -19 -1 -8 3 -5 6 6 6 11 1 17 -2 13 -5z
m22 -27 c6 -8 8 -17 4 -20 -7 -8 -33 11 -33 24 0 13 16 11 29 -4z m37 -52 c11
-27 -1 -33 -19 -9 -16 21 -16 24 -2 24 9 0 18 -7 21 -15z m-15 -42 c13 -16 12
-17 -3 -4 -17 13 -22 21 -14 21 2 0 10 -8 17 -17z m69 -41 c0 -8 -1 -13 -3
-11 -1 2 -9 12 -16 22 -12 15 -12 17 3 11 9 -3 16 -13 16 -22z m32 -6 c6 4 9
3 6 -2 -6 -11 28 -45 36 -36 3 3 6 -2 6 -12 0 -11 -6 -16 -17 -14 -10 2 -17
12 -16 22 0 9 -2 15 -5 12 -9 -9 -32 15 -31 33 0 10 2 12 6 3 2 -6 10 -9 15
-6z m364 -21 c-8 -9 -20 -24 -25 -33 -5 -9 -12 -14 -15 -12 -3 3 7 20 21 38
14 18 28 31 30 28 3 -3 -2 -12 -11 -21z m-308 -67 c9 -9 12 -9 12 3 1 19 40
-28 40 -48 0 -8 5 -11 10 -8 6 3 10 1 10 -4 0 -14 -17 -14 -26 0 -4 8 -9 7
-15 -2 -7 -11 -9 -10 -9 3 0 9 -11 29 -25 43 -14 14 -22 25 -17 25 4 0 13 -5
20 -12z m272 1 c0 -4 -6 -9 -13 -12 -8 -3 -14 0 -14 7 0 7 6 13 14 13 7 0 13
-4 13 -8z m-70 -103 c0 -2 -7 -9 -15 -16 -13 -11 -14 -10 -9 4 5 14 24 23 24
12z m-10 -46 c-6 -11 -13 -20 -16 -20 -2 0 0 9 6 20 6 11 13 20 16 20 2 0 0
-9 -6 -20z m13 -50 c-13 -5 -23 -15 -23 -21 0 -7 -2 -10 -5 -7 -12 11 9 38 29
37 21 0 21 0 -1 -9z m-150 -55 c-3 -9 -8 -14 -10 -11 -3 3 -2 9 2 15 9 16 15
13 8 -4z m107 -115 c0 -5 -8 -10 -17 -10 -10 0 -35 -3 -55 -6 -41 -7 -55 11
-15 19 43 8 87 7 87 -3z m5 -49 c-14 -12 -115 -22 -115 -11 0 11 25 17 80 19
25 1 40 -3 35 -8z m-31 -548 c-3 -274 -7 -534 -9 -578 -2 -44 -4 -135 -4 -202
-1 -116 -2 -123 -21 -123 -14 0 -20 7 -21 23 -6 87 13 1337 21 1375 0 1 9 2
20 2 21 0 21 -2 14 -497z m6 -923 c13 -8 13 -10 -1 -10 -9 0 -37 -3 -63 -6
-30 -4 -46 -3 -46 4 0 19 85 28 110 12z m-25 -60 c-3 -5 2 -10 12 -10 17 -1
17 -1 1 -11 -13 -7 -18 -23 -18 -53 0 -58 -18 -106 -49 -134 -28 -24 -52 -25
-59 -2 -4 13 -3 13 11 2 9 -8 22 -10 28 -6 9 5 6 10 -9 15 -12 5 -22 14 -21
21 0 10 2 10 6 1 2 -7 14 -13 26 -13 18 0 19 2 7 10 -13 9 -13 11 0 21 13 9
12 10 -2 5 -13 -4 -18 0 -18 15 0 13 6 19 17 17 14 -3 17 4 14 42 -3 53 -14
68 -36 50 -20 -16 -20 -44 0 -36 8 3 15 1 15 -4 0 -17 -18 -20 -30 -5 -18 22
2 65 30 65 12 0 18 5 15 10 -4 6 8 10 30 10 22 0 34 -4 30 -10z m67 -42 c-11
-13 -22 -41 -25 -63 l-4 -40 -1 44 c-2 34 3 48 20 62 29 26 36 24 10 -3z m-38
-187 c4 -5 2 -12 -4 -16 -5 -3 -10 -31 -10 -62 0 -45 3 -54 15 -49 19 7 19 -1
1 -20 -8 -7 -16 -19 -19 -26 -2 -9 -16 -1 -38 21 -19 19 -29 31 -22 27 6 -3
14 -2 17 3 3 5 -3 11 -13 14 -10 2 -18 13 -17 23 2 29 29 94 39 94 4 0 5 5 2
10 -3 6 -2 10 4 10 6 0 13 17 18 38 l7 37 7 -47 c4 -26 10 -51 13 -57z m-53
-203 l24 -43 0 -457 c0 -472 -2 -499 -39 -469 -16 14 -18 24 -51 247 -26 179
-48 297 -70 379 -24 89 -27 111 -16 100 20 -21 61 -192 96 -402 42 -254 49
-280 60 -208 8 52 -26 810 -40 878 -6 30 10 18 36 -25z m-111 -88 c-16 -30
-83 -69 -137 -80 -85 -17 -104 -19 -98 -9 4 5 18 9 32 9 48 0 134 34 171 67
44 38 46 39 32 13z m565 -71 c46 -8 116 -9 207 -5 165 8 191 -8 31 -19 -118
-9 -263 6 -316 30 -18 8 -23 13 -12 10 11 -2 51 -9 90 -16z m-1172 -19 c-10
-11 -21 -20 -25 -20 -5 0 -8 9 -8 20 0 15 7 20 25 20 24 0 24 -1 8 -20z m345
-7 c-10 -2 -26 -2 -35 0 -10 3 -2 5 17 5 19 0 27 -2 18 -5z m901 -63 l56 0
-50 -29 c-46 -27 -51 -27 -73 -13 -23 15 -25 14 -42 -8 -22 -30 -55 -21 -46
13 3 12 6 28 6 36 0 11 10 12 46 7 26 -3 72 -6 103 -6z m220 -162 c-13 -83
-25 -146 -27 -140 -2 6 6 75 17 152 12 78 21 147 22 153 0 8 2 7 6 -1 3 -7 -5
-81 -18 -164z m-394 125 c0 -37 45 -55 73 -29 18 15 20 15 26 1 3 -9 2 -13 -4
-10 -6 3 -10 1 -10 -4 0 -6 -8 -11 -17 -12 -10 0 -13 -3 -6 -5 6 -3 28 2 48
10 21 9 39 16 40 16 1 0 0 -11 -2 -24 -5 -24 -33 -46 -33 -26 0 6 -16 10 -35
10 -19 0 -35 5 -35 10 0 6 -3 9 -7 9 -32 -5 -70 38 -59 66 9 24 22 17 21 -12z
m327 3 c30 -23 56 -128 27 -110 -7 4 -9 0 -5 -14 8 -23 -27 -102 -45 -102 -6
0 -8 -4 -5 -8 3 -5 -2 -9 -10 -9 -11 0 -9 6 7 23 l21 23 -42 3 c-49 3 -66 22
-56 61 8 34 56 40 56 7 0 -23 -10 -26 -28 -8 -9 9 -12 7 -12 -9 0 -46 72 -55
98 -13 l16 25 -23 -22 c-29 -30 -41 -30 -13 0 41 44 21 137 -30 137 -10 0 -18
-5 -18 -11 0 -5 -4 -7 -10 -4 -5 3 -22 -6 -36 -20 -19 -20 -25 -22 -19 -8 16
41 16 47 0 28 -9 -11 -14 -30 -12 -42 3 -19 -9 -33 -29 -33 -7 0 -4 46 4 54 4
4 7 12 7 18 0 18 67 48 105 48 19 0 43 -6 52 -14z m-916 -54 c-18 -16 -18 -16
-6 6 6 13 14 21 18 18 3 -4 -2 -14 -12 -24z m898 15 c11 -8 17 -18 15 -23 -2
-5 -14 1 -26 14 -24 24 -17 30 11 9z m-282 -38 c22 -11 49 -18 59 -16 11 3 22
1 25 -5 3 -5 12 -7 20 -4 8 3 14 -1 14 -10 0 -12 6 -15 24 -10 22 5 24 2 30
-42 11 -81 -50 -383 -120 -595 -30 -91 -40 -110 -63 -120 -43 -18 -61 -38 -62
-71 0 -17 -3 -25 -6 -18 -7 19 -31 14 -38 -8 -4 -13 -15 -20 -32 -20 -39 0
-83 -36 -83 -69 l0 -29 -35 16 c-19 9 -35 22 -35 28 0 7 -10 16 -21 19 -21 7
-22 11 -16 101 l6 93 -34 41 c-40 48 -46 63 -12 33 52 -49 97 -27 143 71 36
75 103 327 106 396 1 23 5 37 11 33 6 -4 8 2 5 15 -4 12 -2 22 4 22 6 0 8 11
6 25 -3 15 -1 22 5 18 6 -4 8 4 5 20 -3 15 -2 24 2 22 5 -3 11 2 14 11 9 23 8
26 -6 18 -8 -5 -9 -2 -5 10 4 10 7 23 8 29 0 7 4 3 8 -8 8 -19 8 -19 15 3 9
27 7 27 58 1z m208 13 c0 -5 -7 -17 -16 -28 -8 -10 -14 -14 -11 -9 2 6 7 18
10 28 7 17 17 23 17 9z m-1197 -102 c3 -11 2 -18 -3 -15 -4 3 -10 14 -13 25
-3 11 -2 18 3 15 4 -3 10 -14 13 -25z m1224 -101 c-9 -6 -15 -14 -12 -20 4 -5
2 -9 -4 -9 -6 0 -7 -7 -4 -17 4 -10 2 -14 -5 -9 -6 3 -12 -3 -15 -16 -4 -21
-4 -21 -6 3 -1 28 33 79 52 79 7 0 4 -5 -6 -11z m79 -177 c-37 -188 -70 -293
-131 -419 -84 -176 -192 -306 -334 -402 -59 -40 -156 -93 -204 -110 l-28 -11
6 48 c6 43 14 55 60 89 13 10 135 10 128 1 -21 -34 93 49 170 124 165 162 261
368 324 694 15 80 29 139 31 130 2 -8 -8 -73 -22 -144z m-69 116 c-3 -7 -5 -2
-5 12 0 14 2 19 5 13 2 -7 2 -19 0 -25z m41 -49 c2 -9 0 -10 -5 -4 -17 22 -38
9 -47 -27 -7 -26 -5 -54 4 -93 7 -30 10 -58 7 -62 -4 -3 -7 3 -7 15 0 11 -4
23 -10 27 -5 3 -7 12 -3 20 3 9 -1 15 -11 15 -19 0 -20 -4 -5 -33 10 -20 10
-20 -4 -7 -8 8 -18 26 -22 38 -6 21 -4 23 15 17 20 -6 21 -4 15 35 -5 32 -3
40 6 34 9 -5 10 -2 6 9 -4 10 0 20 10 26 22 12 46 7 51 -10z m-1161 -11 c-3
-8 -6 -5 -6 6 -1 11 2 17 5 13 3 -3 4 -12 1 -19z m-50 -50 c-3 -7 -5 -2 -5 12
0 14 2 19 5 13 2 -7 2 -19 0 -25z m-11 -47 c-1 -16 -5 -26 -10 -23 -5 3 -7 -2
-3 -11 3 -10 2 -17 -3 -17 -13 0 -13 10 1 49 14 39 16 39 15 2z m1144 -77 c0
-8 4 -13 9 -10 11 7 21 -18 20 -47 0 -18 -3 -17 -15 10 -7 17 -18 34 -24 38
-13 8 -13 25 0 25 6 0 10 -7 10 -16z m-1096 -32 c-12 -9 -26 -26 -32 -37 -6
-11 -12 -14 -12 -7 0 14 44 62 57 62 4 0 -2 -8 -13 -18z m1066 -2 c26 -14 44
-83 32 -118 -9 -24 -10 -22 -10 20 0 47 -15 88 -32 88 -4 0 -2 -13 6 -30 9
-16 14 -41 12 -55 l-3 -24 -25 26 c-25 26 -25 26 -2 21 29 -8 28 0 -4 33 -36
38 -19 63 26 39z m-1113 -122 c-2 -13 -4 -3 -4 22 0 25 2 35 4 23 2 -13 2 -33
0 -45z m46 -13 c-3 -9 -8 -14 -10 -11 -3 3 -2 9 2 15 9 16 15 13 8 -4z m1060
-49 c-1 -48 -39 -136 -63 -144 -9 -3 -7 5 7 24 35 51 46 92 39 141 -5 36 -3
44 5 36 7 -7 12 -32 12 -57z m-154 -129 c8 -10 7 -19 -3 -32 -12 -16 -16 -17
-30 -6 -14 11 -16 11 -16 -2 0 -17 34 -32 50 -22 5 3 10 0 11 -7 0 -10 2 -10
6 0 5 14 62 46 69 39 3 -2 -12 -15 -33 -28 -70 -42 -123 -34 -123 19 0 40 46
66 69 39z m-684 -67 c-16 -11 -37 -20 -45 -20 -8 0 1 8 20 19 47 25 62 26 25
1z m603 -47 c9 -7 23 -13 31 -13 9 1 3 6 -13 13 -28 12 -26 13 32 12 52 0 57
-2 39 -12 -12 -6 -25 -9 -29 -7 -5 3 -8 0 -8 -5 0 -15 -49 -14 -105 1 -39 11
-47 10 -61 -4 -22 -22 -12 -70 13 -61 11 4 14 3 9 -5 -4 -7 -16 -12 -27 -12
-11 0 -18 4 -15 8 3 5 -1 9 -9 9 -8 0 -15 -3 -15 -7 0 -12 24 -30 42 -30 23 0
24 -20 1 -20 -10 0 -27 -7 -37 -15 -35 -27 -86 -13 -86 22 0 10 4 11 19 1 28
-17 49 4 57 57 8 56 41 89 83 83 24 -4 32 0 37 15 6 20 7 20 16 1 6 -10 18
-25 26 -31z m-289 -15 c10 -19 8 -30 -7 -62 l-19 -39 -7 36 c-4 20 -14 41 -24
47 -15 10 -14 11 5 7 12 -3 22 -2 21 2 -4 36 13 41 31 9z m245 -14 c14 -5 14
-9 1 -34 -20 -38 -36 -47 -32 -18 1 17 -4 24 -20 26 -23 3 -29 13 -16 25 8 9
46 9 67 1z m-434 -24 c-6 -11 -13 -20 -16 -20 -2 0 0 9 6 20 6 11 13 20 16 20
2 0 0 -9 -6 -20z m53 -32 c-3 -17 -2 -19 5 -9 6 8 12 9 16 3 3 -5 -1 -12 -9
-16 -17 -6 -29 9 -21 29 8 23 15 18 9 -7z m241 -1 c8 -14 8 -20 -4 -27 -23
-15 -30 -12 -30 10 0 28 -28 25 -42 -5 -13 -29 2 -76 24 -74 10 0 10 2 1 6 -7
2 -13 9 -13 14 0 6 8 6 19 -1 28 -14 63 -12 89 6 21 14 22 14 22 -10 0 -21 -7
-27 -39 -37 -46 -14 -83 -6 -109 21 -24 26 -26 79 -4 103 20 22 71 19 86 -6z
m176 -17 c0 -5 -7 -10 -16 -10 -8 0 -27 -13 -41 -30 -30 -36 -47 -39 -31 -5 6
14 17 25 23 25 7 0 18 7 25 15 14 17 40 20 40 5z m-343 -32 c-3 -7 -5 -2 -5
12 0 14 2 19 5 13 2 -7 2 -19 0 -25z m-27 -8 c-6 -11 -13 -20 -16 -20 -2 0 0
9 6 20 6 11 13 20 16 20 2 0 0 -9 -6 -20z m-226 -36 c3 -8 2 -12 -4 -9 -6 3
-10 10 -10 16 0 14 7 11 14 -7z m320 -44 c6 0 0 -7 -12 -16 -20 -14 -24 -14
-38 0 -13 14 -13 18 3 43 l18 27 9 -27 c6 -15 14 -27 20 -27z m-184 -59 c30
-21 74 -48 98 -60 46 -24 56 -36 17 -21 -32 12 -182 111 -212 140 -34 32 -27
36 10 6 17 -14 57 -44 87 -65z m195 79 c3 -5 1 -10 -4 -10 -6 0 -11 5 -11 10
0 6 2 10 4 10 3 0 8 -4 11 -10z"/>
<path d="M1716 5725 c4 -8 11 -15 16 -15 6 0 5 6 -2 15 -7 8 -14 15 -16 15 -2
0 -1 -7 2 -15z"/>
<path d="M1791 3724 c0 -11 3 -14 6 -6 3 7 2 16 -1 19 -3 4 -6 -2 -5 -13z"/>
<path d="M1790 3545 c-11 -13 -10 -15 4 -9 19 7 20 0 5 -28 -8 -15 -8 -19 0
-13 8 4 10 -2 7 -19 -3 -15 -1 -24 5 -21 11 8 12 75 0 93 -6 10 -10 10 -21 -3z"/>
<path d="M5350 6563 c-8 -1 -145 -4 -305 -8 -316 -6 -312 -6 -370 -5 -46 0
-52 -5 -65 -50 -7 -26 -7 -31 2 -22 7 7 29 12 51 12 34 0 38 -3 35 -22 -2 -18
-9 -22 -35 -22 -18 1 -33 -4 -33 -10 0 -6 -8 -2 -17 9 -15 19 -15 18 -9 -20 4
-22 11 -98 16 -170 5 -71 14 -148 20 -170 21 -73 80 -172 146 -244 169 -188
183 -217 184 -363 0 -59 -4 -109 -9 -112 -4 -3 -8 -24 -8 -46 0 -29 5 -45 19
-55 20 -13 20 -25 18 -402 -2 -213 -4 -405 -5 -425 -1 -21 -3 -153 -4 -293
l-1 -255 -25 -22 c-25 -22 -33 -62 -15 -73 6 -4 10 -89 10 -223 -1 -169 -4
-222 -15 -242 -17 -30 -19 -44 -4 -34 22 13 -10 -34 -37 -55 -31 -24 -115 -52
-153 -50 -21 1 -22 2 -6 6 85 19 185 65 185 86 0 4 -18 -4 -39 -18 -86 -57
-280 -79 -459 -51 -120 18 -142 13 -142 -35 0 -22 6 -32 19 -36 11 -3 22 -10
24 -17 3 -7 11 -87 17 -179 7 -92 16 -167 20 -167 3 0 3 30 -1 68 -10 96 -19
269 -14 257 2 -5 13 -109 25 -230 30 -322 65 -504 120 -618 11 -22 18 -42 16
-45 -13 -12 -82 186 -106 303 -10 50 -19 78 -19 63 -3 -104 100 -382 193 -518
107 -158 391 -385 477 -382 40 1 180 74 266 139 259 195 390 453 463 913 70
438 61 400 89 413 31 15 38 48 15 71 -14 15 -28 16 -93 10 -189 -19 -361 0
-440 48 -18 12 -46 42 -62 67 l-29 45 0 198 c0 141 4 204 12 218 11 18 9 24
-19 50 l-32 30 4 123 c3 67 7 374 10 682 5 544 6 560 25 574 15 10 20 25 20
57 0 23 -5 46 -11 50 -8 5 -10 38 -6 112 5 90 10 115 36 166 27 55 92 143 163
220 42 47 106 166 123 231 9 33 21 112 26 175 6 63 13 138 16 166 5 55 -16
124 -39 125 -7 0 -29 2 -48 4 -19 2 -40 -1 -45 -5 -6 -5 -37 -5 -70 -1 -33 3
-67 6 -75 4z m206 -80 c-3 -8 -6 -18 -6 -21 0 -4 -18 -7 -40 -7 -39 -1 -46 7
-35 37 4 9 18 12 46 10 30 -3 39 -8 35 -19z m-136 -3 c8 -5 11 -13 6 -17 -4
-4 -131 -10 -282 -12 -151 -2 -272 -7 -269 -11 6 -9 -15 -8 -31 2 -8 6 -49 4
-49 -2 0 -1 -12 -4 -27 -6 -33 -3 -43 9 -28 36 10 19 20 20 338 20 184 0 333
-4 342 -10z m37 -22 c-3 -7 -5 -2 -5 12 0 14 2 19 5 13 2 -7 2 -19 0 -25z m35
-173 c-5 -78 -27 -159 -59 -214 -28 -48 -112 -150 -187 -226 -59 -61 -115
-146 -118 -179 -1 -13 -6 -22 -10 -20 -4 3 -8 -1 -9 -8 0 -7 -3 -22 -5 -33 -5
-24 -13 -117 -14 -161 0 -20 -6 -34 -17 -38 -26 -10 -37 9 -37 66 -1 65 -11
85 -34 66 -13 -11 -14 -11 -10 2 3 8 15 15 27 14 25 -1 25 -3 6 32 -9 17 -11
30 -5 32 6 2 7 8 4 14 -4 6 -8 25 -10 42 -3 25 -2 28 7 13 5 -9 7 -22 4 -27
-3 -5 0 -7 9 -4 29 11 -7 67 -123 189 -83 88 -119 119 -128 113 -13 -10 -33 3
-46 32 -4 8 -18 35 -32 59 -14 24 -25 51 -25 60 0 8 -7 35 -17 59 -10 27 -13
46 -7 52 6 6 10 0 12 -17 1 -14 6 -31 12 -38 5 -6 11 -27 12 -45 1 -19 10 -42
20 -52 10 -10 15 -24 12 -32 -3 -8 -1 -17 5 -21 7 -4 8 0 4 11 -4 12 -3 15 5
10 7 -4 12 -15 12 -25 0 -18 18 -41 33 -41 5 0 1 12 -9 28 -34 51 -60 107 -72
152 -15 59 -21 129 -12 135 4 2 10 -28 13 -68 10 -116 53 -191 200 -345 67
-70 133 -149 147 -175 14 -26 29 -46 35 -44 5 2 21 24 35 49 29 52 77 112 147
183 89 91 142 161 175 230 28 61 32 82 37 179 3 67 7 99 11 81 3 -16 5 -57 2
-90z m-850 -38 c2 -37 0 -67 -4 -67 -5 0 -7 44 -6 98 1 100 5 88 10 -31z m902
-27 c-6 -55 -9 -61 -15 -35 -4 18 -7 22 -8 11 -1 -25 -23 -86 -31 -86 -13 0
-9 51 5 56 8 4 15 17 15 30 0 15 6 24 15 24 12 0 15 15 17 73 1 46 3 58 6 32
2 -22 0 -69 -4 -105z m-877 70 c1 -28 -1 -49 -6 -46 -13 9 -12 96 2 96 1 0 3
-23 4 -50z m863 17 c0 -5 -4 -5 -10 -2 -5 3 -10 14 -10 23 0 15 2 15 10 2 5
-8 10 -19 10 -23z m-843 1 c-3 -8 -6 -5 -6 6 -1 11 2 17 5 13 3 -3 4 -12 1
-19z m783 -29 c0 -55 -31 -153 -68 -213 -19 -33 -79 -105 -132 -160 -53 -56
-111 -122 -130 -148 -18 -27 -34 -48 -35 -48 -1 0 -14 17 -28 38 -14 22 -65
79 -114 128 -49 49 -103 110 -120 135 -42 61 -73 156 -73 223 l0 54 88 4 c48
2 197 5 332 7 134 1 246 4 249 7 15 14 31 0 31 -27z m-815 -148 c3 -18 12 -49
20 -68 8 -18 10 -31 6 -28 -12 7 -41 93 -41 118 0 29 8 17 15 -22z m835 -41
c0 -5 -4 -10 -10 -10 -5 0 -10 5 -10 10 0 6 5 10 10 10 6 0 10 -4 10 -10z m0
-49 c-28 -56 -35 -52 -8 4 12 24 23 43 26 41 2 -2 -6 -22 -18 -45z m-20 5 c0
-3 -4 -8 -10 -11 -5 -3 -10 -1 -10 4 0 6 5 11 10 11 6 0 10 -2 10 -4z m-741
-78 c18 -27 30 -48 27 -48 -9 0 -66 82 -66 93 0 12 -1 14 39 -45z m707 37
c-11 -8 -25 -15 -30 -15 -6 1 0 7 14 15 32 19 40 18 16 0z m-58 -75 c-7 -10
-14 -18 -15 -16 -6 6 9 36 18 36 5 0 4 -9 -3 -20z m-560 -17 c15 -15 20 -21
11 -15 -9 7 -18 10 -20 7 -3 -2 -10 5 -17 15 -17 28 -6 25 26 -7z m-7 -50 c13
-16 12 -17 -3 -4 -10 7 -18 15 -18 17 0 8 8 3 21 -13z m44 -3 c3 -5 2 -10 -4
-10 -5 0 -13 5 -16 10 -3 6 -2 10 4 10 5 0 13 -4 16 -10z m39 -31 c-3 -5 0 -8
7 -7 7 2 23 -15 35 -37 13 -22 24 -36 24 -31 0 5 9 1 20 -9 11 -10 19 -28 19
-39 -2 -20 -2 -20 -6 2 -2 12 -8 22 -13 22 -4 0 -6 -10 -3 -22 3 -16 -1 -13
-13 10 -9 17 -20 32 -25 32 -5 0 -8 6 -6 13 1 6 -2 11 -8 11 -5 -1 -23 15 -40
34 -16 20 -24 33 -17 28 7 -4 12 -2 12 4 0 6 5 8 10 5 6 -4 8 -11 4 -16z m386
8 c0 -2 -10 -12 -21 -23 -22 -19 -22 -19 -10 4 10 18 31 31 31 19z m-53 -69
c-3 -8 -6 -5 -6 6 -1 11 2 17 5 13 3 -3 4 -12 1 -19z m-7 -23 c0 -12 -19 -12
-23 0 -4 9 -1 12 9 8 7 -3 14 -7 14 -8z m-76 -150 c-17 -26 -24 -31 -24 -16 0
10 28 41 36 41 2 0 -3 -11 -12 -25z m26 -39 c0 -2 -9 -6 -20 -9 -11 -3 -18 -1
-14 4 5 9 34 13 34 5z m-43 -78 c-2 -13 -4 -5 -4 17 -1 22 1 32 4 23 2 -10 2
-28 0 -40z m-117 22 c0 -5 -5 -10 -11 -10 -5 0 -7 5 -4 10 3 6 8 10 11 10 2 0
4 -4 4 -10z m105 -120 c3 -6 -4 -10 -18 -10 -14 0 -39 -3 -56 -6 -19 -4 -31
-2 -31 4 0 18 94 29 105 12z m5 -49 c-23 -13 -110 -22 -110 -12 0 14 20 19 75
20 32 0 45 -3 35 -8z m-29 -88 c1 -21 1 -40 1 -43 0 -3 -3 -286 -7 -630 -9
-752 -6 -685 -31 -685 -18 0 -19 8 -18 225 1 403 14 1152 20 1161 3 5 12 9 20
9 9 0 14 -12 15 -37z m9 -1383 c8 -4 -53 -18 -82 -19 -33 -1 -37 16 -5 22 20
4 74 2 87 -3z m-30 -60 c0 -5 6 -10 14 -10 8 0 17 -4 20 -9 4 -5 -3 -7 -14 -4
-14 4 -20 0 -20 -12 0 -12 -5 -15 -17 -11 -16 5 -16 4 0 -8 41 -31 -21 -176
-75 -176 -12 0 -18 8 -18 25 0 22 3 24 33 19 26 -4 29 -3 15 6 -10 6 -18 22
-18 36 0 14 4 23 8 20 12 -7 52 22 52 37 0 7 -5 4 -11 -5 -18 -31 -31 -20 -27
25 2 36 0 42 -17 42 -22 0 -34 -34 -15 -45 9 -5 9 -9 1 -14 -15 -10 -25 18
-17 49 4 16 13 25 26 25 11 0 20 5 20 10 0 6 14 10 30 10 17 0 30 -4 30 -10z
m81 -27 c-7 -3 -21 -24 -32 -47 -13 -28 -19 -34 -19 -20 0 25 36 74 53 73 8 0
7 -3 -2 -6z m-61 -125 c1 -138 -2 -253 -6 -258 -3 -2 -14 6 -26 20 -11 14 -17
19 -13 13 3 -7 4 -13 1 -13 -3 0 -10 10 -17 21 -7 13 -7 19 -1 15 6 -3 13 -2
17 4 3 5 -3 10 -14 10 -16 0 -21 6 -21 25 0 27 26 85 42 96 5 3 9 10 9 15 -1
12 20 74 25 74 2 0 4 -10 4 -22z m17 -220 c-3 -8 -6 -5 -6 6 -1 11 2 17 5 13
3 -3 4 -12 1 -19z m-51 -85 c16 -40 18 -93 18 -472 1 -234 -2 -438 -7 -453 -8
-32 -32 -37 -46 -10 -5 10 -17 72 -26 138 -21 155 -61 379 -86 476 -22 90 -24
113 -4 78 24 -43 69 -258 116 -557 6 -40 15 -73 20 -73 19 0 10 315 -25 868
-4 61 -2 71 9 62 8 -6 22 -32 31 -57z m444 -135 c33 -6 113 -8 203 -4 171 8
204 -8 40 -19 -119 -8 -274 6 -326 30 l-32 15 30 -6 c16 -3 54 -10 85 -16z
m-1167 -18 c-20 -23 -43 -26 -43 -7 0 20 10 27 37 27 22 0 22 -1 6 -20z m1476
-136 c-7 -43 -14 -73 -17 -65 -5 15 18 155 24 148 2 -2 -1 -40 -7 -83z m-191
61 c2 -1 -19 -14 -45 -28 -43 -22 -51 -23 -68 -11 -16 12 -22 11 -42 -8 -22
-21 -24 -21 -40 -5 -13 13 -14 20 -6 28 6 6 9 18 6 26 -4 11 11 12 93 7 55 -4
100 -8 102 -9z m-223 -24 c-6 -21 18 -51 42 -51 9 0 25 8 35 17 18 16 19 16
25 -5 6 -23 18 -28 28 -12 10 16 25 11 25 -9 0 -10 -7 -24 -15 -31 -11 -9 -15
-9 -15 -1 0 7 -8 11 -17 10 -42 -4 -63 3 -92 27 -30 25 -43 74 -20 74 6 0 8
-8 4 -19z m340 -16 c18 -17 25 -33 22 -45 -3 -11 -1 -18 4 -14 5 3 9 -4 9 -15
0 -12 -4 -21 -10 -21 -5 0 -6 -7 -3 -17 5 -12 3 -14 -7 -8 -10 6 -12 4 -7 -9
4 -10 -7 -44 -28 -86 -19 -38 -35 -76 -35 -85 0 -8 -4 -15 -9 -15 -11 0 6 57
23 79 9 12 7 13 -9 8 -14 -5 -10 0 10 17 l30 25 -42 1 c-35 0 -46 5 -60 26
-19 29 -9 56 22 62 25 5 42 -15 27 -30 -10 -10 -15 -10 -22 2 -8 12 -10 12
-16 -3 -9 -24 6 -38 49 -44 29 -3 38 0 47 16 7 14 7 21 1 21 -7 0 -7 8 0 24
20 43 -10 107 -49 105 -13 0 -12 -2 4 -9 12 -5 26 -14 30 -21 4 -7 -9 -4 -29
8 -19 12 -37 19 -39 15 -2 -4 -16 -18 -31 -32 -25 -21 -27 -22 -21 -5 4 11 12
26 17 33 7 9 6 11 -7 6 -15 -6 -18 -14 -20 -58 -2 -34 -26 -31 -26 3 0 18 5
31 13 31 9 0 9 2 -1 9 -10 6 -1 14 30 30 58 28 98 27 133 -4z m-1307 -30 c-6
-14 -13 -23 -15 -21 -5 5 15 46 22 46 3 0 -1 -11 -7 -25z m389 -10 c-4 -8 -11
-15 -17 -15 -6 0 -6 7 2 20 14 22 24 19 15 -5z m-103 0 c-4 -8 -8 -15 -10 -15
-2 0 -4 7 -4 15 0 8 4 15 10 15 5 0 7 -7 4 -15z m661 -15 c10 8 23 5 53 -10
22 -12 58 -22 81 -23 26 -1 41 -6 41 -14 0 -16 22 -17 38 -1 9 9 11 3 10 -24
-1 -19 2 -39 5 -44 7 -12 -52 -328 -82 -439 -12 -44 -36 -119 -52 -167 -28
-78 -34 -88 -60 -93 -35 -8 -63 -55 -53 -88 6 -21 5 -21 -8 -3 -16 20 -38 15
-38 -10 0 -9 -10 -14 -28 -14 -26 0 -69 -22 -84 -44 -4 -6 -8 -21 -8 -32 0
-21 -1 -21 -34 -5 -18 9 -31 21 -29 27 2 6 -6 15 -18 20 -20 9 -22 16 -20 108
l2 99 -33 36 c-18 19 -24 28 -13 20 70 -55 120 -12 177 151 23 67 68 260 73
313 2 21 9 45 16 53 6 8 9 23 6 34 -3 13 -1 18 6 13 6 -4 8 2 5 15 -3 12 -1
23 5 25 5 1 11 23 12 48 2 62 6 79 12 56 4 -14 8 -15 18 -7z m258 -10 c-3 -11
-9 -20 -15 -20 -5 0 -4 9 2 20 6 11 12 20 14 20 2 0 2 -9 -1 -20z m-1216 -42
c-3 -8 -6 -5 -6 6 -1 11 2 17 5 13 3 -3 4 -12 1 -19z m1370 -45 c-3 -10 -5 -2
-5 17 0 19 2 27 5 18 2 -10 2 -26 0 -35z m-10 -60 c-3 -10 -5 -4 -5 12 0 17 2
24 5 18 2 -7 2 -21 0 -30z m-112 -43 c-3 -5 -11 -10 -16 -10 -6 0 -7 5 -4 10
3 6 11 10 16 10 6 0 7 -4 4 -10z m94 -74 c-6 -42 -14 -75 -16 -72 -3 2 1 39 8
80 6 42 14 75 16 72 3 -2 -1 -39 -8 -80z m-114 44 c-12 -5 -14 -9 -6 -9 12 -1
11 -4 -1 -18 -9 -10 -18 -25 -21 -33 -4 -12 -6 -12 -6 2 -2 31 18 68 36 67 16
0 15 -2 -2 -9z m15 -44 c0 -3 -4 -8 -10 -11 -5 -3 -10 -1 -10 4 0 6 5 11 10
11 6 0 10 -2 10 -4z m19 -22 c-7 -9 -14 -23 -15 -32 -3 -17 -26 -34 -34 -25
-3 3 1 8 8 10 6 3 9 9 6 15 -4 6 4 19 17 29 30 23 35 24 18 3z m28 -16 c-3 -8
-6 -5 -6 6 -1 11 2 17 5 13 3 -3 4 -12 1 -19z m18 -146 c-75 -340 -219 -579
-446 -739 -76 -54 -220 -126 -230 -116 -3 5 -4 25 -2 46 8 57 53 88 137 91 39
1 62 -2 59 -8 -20 -31 124 83 183 145 145 155 228 322 285 578 13 57 25 98 27
92 2 -7 -4 -46 -13 -89z m-1228 66 c-3 -8 -6 -5 -6 6 -1 11 2 17 5 13 3 -3 4
-12 1 -19z m1170 -43 c7 -32 11 -60 9 -62 -4 -5 -30 58 -27 70 0 4 -6 7 -14 7
-18 0 -19 -11 -2 -30 10 -12 9 -12 -5 -1 -10 7 -18 22 -18 33 0 15 5 18 21 13
19 -6 20 -5 9 15 -10 18 -9 21 1 18 7 -2 19 -31 26 -63z m-37 -56 c0 -5 5 -7
12 -3 6 4 8 3 4 -4 -3 -6 -2 -13 4 -17 5 -3 9 -18 9 -33 -1 -21 -2 -23 -6 -7
-3 11 -14 32 -25 48 -11 15 -15 27 -9 27 6 0 11 -5 11 -11z m-1104 -48 c-9
-10 -21 -32 -26 -47 -6 -23 -8 -25 -9 -8 -1 20 33 74 46 74 3 0 -2 -9 -11 -19z
m1093 -7 c16 -20 21 -40 20 -78 l-1 -51 -8 53 c-8 51 -23 82 -41 82 -5 0 -2
-11 6 -24 9 -13 15 -28 14 -32 -1 -5 1 -17 5 -26 14 -31 2 -34 -26 -5 -24 24
-25 27 -7 27 25 0 24 12 -1 28 -11 7 -20 21 -20 32 0 29 34 25 59 -6z m-1088
-151 c-4 -28 -6 -32 -9 -15 -3 22 3 52 11 52 1 0 1 -17 -2 -37z m1069 -7 c0
-60 -44 -156 -72 -156 -4 0 1 9 12 20 26 26 53 121 44 156 -5 19 -4 25 5 20 6
-4 11 -22 11 -40z m-1013 -236 c19 -30 25 -44 13 -31 -23 27 -90 138 -90 149
0 4 10 -9 22 -28 11 -19 36 -60 55 -90z m93 114 c0 -8 -19 -13 -24 -6 -3 5 1
9 9 9 8 0 15 -2 15 -3z m765 -25 c8 -25 -13 -43 -31 -28 -8 6 -14 6 -18 1 -9
-15 20 -33 46 -30 12 2 36 12 51 22 15 10 30 17 33 14 8 -9 -75 -58 -97 -58
-26 0 -59 27 -59 47 0 17 36 53 54 53 8 0 18 -10 21 -21z m-665 -43 c0 -2 -12
-11 -27 -20 l-28 -17 24 20 c23 21 31 25 31 17z m576 -51 c13 -14 31 -25 41
-25 12 1 9 5 -10 13 -27 11 -25 12 26 12 30 0 53 -3 50 -7 -2 -5 -11 -8 -19
-8 -8 0 -23 -5 -33 -12 -14 -8 -32 -8 -73 0 -31 6 -65 8 -76 5 -25 -6 -36 -31
-22 -48 8 -9 7 -15 -2 -19 -7 -3 -3 -4 10 -2 19 4 21 2 12 -10 -9 -10 -17 -11
-30 -4 -63 34 -3 126 70 107 13 -3 20 0 20 9 0 20 10 17 36 -11z m-266 -38 c4
1 -3 -18 -17 -42 -22 -41 -36 -57 -31 -37 4 17 -14 72 -24 72 -6 0 -8 3 -5 6
4 4 14 1 24 -7 12 -10 15 -11 9 -1 -4 7 -5 21 -1 30 6 15 8 15 21 -3 9 -11 19
-19 24 -18z m-214 -33 c-9 -8 -11 -9 -6 -2 6 7 11 21 11 33 1 18 2 18 6 1 3
-10 -2 -25 -11 -32z m442 27 c10 -6 9 -14 -5 -39 -22 -38 -32 -41 -25 -7 3 20
0 25 -17 25 -12 0 -21 6 -21 15 0 16 45 21 68 6z m-366 -42 c-12 -11 -19 -26
-16 -32 5 -9 4 -9 -5 -1 -15 13 -5 41 17 47 10 3 19 5 21 6 3 0 -5 -8 -17 -20z
m223 -20 c0 -15 -6 -24 -15 -24 -8 0 -14 8 -14 18 2 20 -16 23 -34 5 -16 -16
-15 -63 1 -76 14 -12 90 -1 111 17 19 16 30 -3 16 -28 -18 -34 -100 -39 -138
-8 -7 6 -18 19 -24 30 -8 15 -7 18 4 11 11 -6 11 -5 0 8 -16 20 -4 49 29 72
29 20 64 6 64 -25z m-445 -62 c0 -9 -41 32 -75 73 -11 14 2 5 28 -20 26 -24
47 -48 47 -53z m525 41 c18 -4 18 -6 3 -11 -37 -14 -43 -17 -59 -28 -21 -16
-69 -3 -69 17 0 10 6 14 15 10 25 -9 45 5 45 32 l0 25 23 -20 c12 -12 31 -23
42 -25z m100 12 c-3 -5 -12 -10 -20 -10 -8 0 -20 -8 -27 -17 -7 -10 -21 -24
-30 -31 -14 -12 -16 -11 -11 8 3 12 16 26 29 31 13 4 24 13 24 19 0 5 9 10 21
10 11 0 17 -4 14 -10z m-380 -50 c-10 -11 -22 -20 -26 -20 -5 0 2 10 14 23 27
28 38 25 12 -3z m38 10 c-3 -12 -8 -19 -11 -16 -5 6 5 36 12 36 2 0 2 -9 -1
-20z m-148 0 c3 -5 1 -10 -4 -10 -6 0 -11 5 -11 10 0 6 2 10 4 10 3 0 8 -4 11
-10z m-24 -17 c13 -16 12 -17 -3 -4 -17 13 -22 21 -14 21 2 0 10 -8 17 -17z
m294 -11 c-3 -3 -11 0 -18 7 -9 10 -8 11 6 5 10 -3 15 -9 12 -12z m-190 -143
c44 -27 76 -49 72 -49 -28 0 -205 120 -252 171 -20 21 -7 14 35 -20 36 -29
101 -74 145 -102z m121 108 c8 -18 7 -26 -3 -36 -12 -11 -18 -10 -33 4 -17 16
-17 18 -2 35 22 24 25 24 38 -3z"/>
<path d="M4970 3595 c0 -16 16 -20 24 -6 3 5 -1 11 -9 15 -9 3 -15 0 -15 -9z"/>
<path d="M5043 3548 c-24 -32 -24 -41 0 -19 15 14 27 26 27 28 0 8 -19 2 -27
-9z"/>
<path d="M5045 3499 c-13 -13 -15 -18 -5 -14 11 4 16 -2 18 -21 3 -38 12 -43
13 -8 0 16 2 37 4 47 4 22 -5 21 -30 -4z"/>
<path d="M5465 3030 c-16 -7 -17 -9 -3 -9 9 -1 20 4 23 9 7 11 7 11 -20 0z"/>
<path d="M3307 4983 c-2 -2 -70 -4 -151 -4 -195 -2 -188 11 -167 -281 15 -218
51 -301 199 -463 68 -74 135 -166 146 -201 8 -25 10 -213 3 -234 -3 -8 -8 -31
-10 -51 -4 -30 -1 -41 20 -59 l25 -21 -6 -252 c-3 -139 -8 -443 -12 -677 l-5
-425 -25 -20 c-24 -21 -32 -59 -14 -70 6 -4 10 -89 10 -223 0 -243 -5 -267
-69 -310 -84 -55 -158 -62 -531 -49 l-65 2 -3 -32 c-3 -27 1 -35 21 -44 23
-10 26 -20 35 -108 l10 -96 -4 100 c-9 167 3 102 26 -140 40 -443 77 -583 208
-798 23 -37 37 -65 32 -62 -10 6 -77 117 -113 185 -24 46 -72 185 -82 235 -4
22 -10 35 -12 28 -15 -42 91 -301 173 -424 89 -133 330 -338 446 -379 34 -13
40 -11 120 27 216 105 371 256 480 468 87 171 143 379 182 675 3 19 13 88 22
153 17 111 20 119 46 135 32 19 37 52 12 77 -13 13 -29 14 -93 8 -279 -29
-455 16 -509 129 -19 39 -21 61 -21 235 0 114 3 195 9 198 18 11 10 43 -16 64
l-27 21 8 682 c7 652 8 684 26 704 21 22 27 98 9 109 -6 4 -8 44 -4 108 8 129
37 197 132 311 163 193 193 259 214 471 16 160 16 269 -1 288 -12 15 -48 17
-342 15 -181 0 -330 -3 -332 -5z m621 -75 c-2 -18 -9 -22 -26 -20 -13 2 -30
-2 -38 -8 -12 -10 -14 -7 -14 19 0 30 2 31 41 31 36 0 40 -2 37 -22z m-858
-13 c0 -20 -4 -24 -22 -21 -13 2 -31 -1 -40 -6 -15 -7 -18 -4 -18 22 0 28 2
30 40 30 36 0 40 -3 40 -25z m694 19 c20 -3 36 -12 36 -19 0 -10 -50 -13 -217
-15 -120 -1 -245 -4 -278 -6 -181 -12 -195 -12 -195 11 0 12 2 24 5 27 8 8
608 10 649 2z m63 -26 c-3 -7 -5 -2 -5 12 0 14 2 19 5 13 2 -7 2 -19 0 -25z
m-724 -355 c34 -84 52 -108 182 -243 60 -64 121 -137 135 -163 14 -26 29 -47
35 -47 5 0 25 27 44 59 18 33 81 110 139 173 167 179 204 248 218 408 3 41 9
77 12 80 2 3 2 -35 -2 -83 -11 -158 -54 -241 -206 -400 -92 -97 -160 -189
-160 -218 0 -9 -4 -19 -10 -21 -10 -3 -32 -216 -24 -229 4 -8 -20 -19 -42 -19
-9 0 -14 8 -13 18 1 9 1 39 0 65 -1 40 -5 50 -21 54 -11 3 -20 10 -20 15 0 6
9 8 20 5 24 -6 24 -7 5 29 -8 16 -10 31 -5 34 5 3 5 11 0 20 -13 20 -12 30 1
30 5 0 7 -4 4 -10 -3 -6 1 -7 9 -4 9 3 16 8 16 11 0 21 -51 86 -146 185 -62
65 -121 132 -131 150 -16 31 -18 31 -21 10 -2 -14 5 -30 20 -42 13 -11 17 -19
10 -20 -21 0 -44 29 -44 56 0 13 -4 27 -9 30 -5 3 -9 -1 -9 -8 0 -21 -40 66
-42 92 -1 14 -8 35 -14 48 -7 13 -10 32 -7 43 8 28 21 23 15 -6 -2 -14 0 -31
5 -38 16 -19 33 -77 23 -77 -4 0 4 -13 18 -30 14 -16 27 -28 29 -26 2 1 -6 21
-17 43 -30 62 -40 119 -38 218 l1 90 7 -110 c6 -83 13 -125 33 -172z m-91 159
c2 -34 0 -62 -4 -62 -5 0 -7 39 -7 88 2 91 6 81 11 -26z m918 86 c0 -18 -2
-20 -9 -8 -6 8 -7 18 -5 22 9 14 14 9 14 -14z m-893 -60 c-6 -4 -7 -8 -2 -8 6
0 11 -9 11 -20 0 -39 -19 -13 -23 31 -3 41 -2 43 12 25 12 -16 12 -22 2 -28z
m863 22 c0 -5 -4 -10 -10 -10 -5 0 -10 5 -10 10 0 6 5 10 10 10 6 0 10 -4 10
-10z m-60 -43 c0 -110 -60 -219 -205 -373 -55 -59 -111 -124 -125 -145 -14
-21 -28 -38 -31 -39 -4 0 -18 18 -32 40 -15 21 -67 79 -116 129 -141 142 -178
210 -188 344 l-6 67 109 0 c168 1 569 12 573 16 14 13 21 -1 21 -39z m53 3 c3
-11 1 -18 -4 -14 -5 3 -9 12 -9 20 0 20 7 17 13 -6z m24 -52 c-2 -13 -4 -5 -4
17 -1 22 1 32 4 23 2 -10 2 -28 0 -40z m-22 -35 c-4 -33 -3 -35 5 -13 8 20 9
18 4 -15 -3 -22 -10 -47 -15 -55 -6 -10 -7 -4 -3 18 4 21 3 32 -5 32 -7 0 -10
-4 -7 -8 2 -4 1 -14 -5 -22 -6 -11 -9 -8 -9 13 0 15 5 27 10 27 6 0 10 11 10
23 0 21 7 37 16 37 2 0 1 -17 -1 -37z m-840 -138 c10 -22 34 -62 53 -90 30
-43 31 -47 8 -26 -37 34 -95 160 -101 218 l-5 48 13 -55 c8 -30 22 -73 32 -95z
m797 33 c-7 -7 -12 -8 -12 -2 0 6 3 14 7 17 3 4 9 5 12 2 2 -3 -1 -11 -7 -17z
m-43 -74 c-6 -8 -17 -14 -23 -14 -6 0 -3 5 7 11 9 6 14 15 11 21 -4 7 -2 8 5
4 9 -6 9 -11 0 -22z m-49 -63 c0 -5 -7 -12 -16 -15 -14 -5 -15 -4 -4 9 14 17
20 19 20 6z m-573 -26 c25 -23 26 -24 5 -18 -13 3 -27 14 -33 24 -13 26 -3 24
28 -6z m-12 -41 c9 -15 12 -23 6 -20 -11 7 -35 46 -28 46 3 0 12 -12 22 -26z
m61 -26 c0 -22 1 -22 -21 1 -16 19 -16 20 2 18 11 0 19 -8 19 -19z m62 -44
c31 -36 33 -54 9 -54 -7 0 -6 4 3 10 12 8 10 10 -9 10 -18 0 -22 4 -17 17 4
10 4 14 0 10 -9 -9 -34 12 -34 29 0 23 16 16 48 -22z m352 19 c-8 -3 -25 -17
-38 -32 l-24 -26 22 33 c12 17 29 32 38 31 14 0 14 -2 2 -6z m-58 -85 c-6 -6
-15 -8 -19 -4 -4 4 -1 11 7 16 19 12 27 3 12 -12z m-224 -44 c-14 -15 -15 -14
-11 10 3 15 1 26 -6 26 -5 0 -8 -8 -4 -17 5 -15 3 -14 -10 2 -22 28 2 41 28
15 18 -18 18 -21 3 -36z m162 -48 c0 -2 -7 -9 -15 -16 -13 -11 -14 -10 -9 4 5
14 24 23 24 12z m9 -89 c-2 -1 -12 -9 -22 -16 -15 -12 -17 -12 -11 3 3 9 13
16 22 16 8 0 13 -1 11 -3z m-42 -59 c-3 -8 -6 -5 -6 6 -1 11 2 17 5 13 3 -3 4
-12 1 -19z m-114 -3 c-3 -9 -8 -14 -10 -11 -3 3 -2 9 2 15 9 16 15 13 8 -4z
m102 -114 c15 -6 11 -9 -20 -14 -58 -10 -91 -9 -79 2 8 8 40 17 69 19 6 0 19
-3 30 -7z m5 -51 c12 -8 10 -10 -10 -10 -14 0 -42 -3 -62 -6 -24 -4 -38 -3
-38 4 0 19 85 28 110 12z m-26 -367 c-2 -170 -6 -409 -9 -533 -3 -124 -5 -298
-5 -387 l0 -163 -25 0 -24 0 5 318 c3 174 7 400 9 502 2 102 4 272 4 378 l1
192 24 0 25 0 -5 -307z m-4 -1113 c-37 -12 -102 -12 -95 0 3 6 32 10 63 9 44
-1 51 -3 32 -9z m-14 -54 c9 -9 10 -17 4 -21 -5 -3 -10 -23 -10 -43 0 -56 -17
-107 -46 -136 -34 -33 -67 -35 -62 -3 2 18 8 21 33 19 25 -2 27 -1 13 8 -21
13 -25 62 -5 54 15 -5 18 87 3 98 -15 10 -36 -3 -36 -23 0 -21 16 -26 23 -6 3
6 6 8 6 2 1 -18 -17 -38 -28 -31 -30 19 1 85 33 73 10 -4 13 -1 9 9 -7 19 43
19 63 0z m66 -39 c-12 -13 -22 -31 -22 -40 0 -9 -4 -17 -9 -17 -5 0 -7 9 -4
19 5 20 39 61 50 61 4 0 -3 -10 -15 -23z m-50 -219 c0 -68 2 -117 5 -110 2 6
9 12 14 12 5 0 0 -14 -13 -30 -21 -30 -22 -30 -33 -10 -6 11 -14 18 -17 14 -4
-3 -12 4 -18 16 -10 18 -9 21 2 15 7 -3 5 0 -4 8 -10 8 -18 24 -18 35 0 24 30
92 41 92 6 0 11 12 24 63 2 4 3 12 4 19 0 6 4 8 8 5 3 -4 6 -62 5 -129z m-40
-181 c21 -41 22 -54 26 -447 4 -428 -1 -512 -31 -518 -24 -5 -32 23 -57 199
-24 169 -51 320 -81 444 -23 99 -23 112 2 57 22 -52 68 -269 99 -474 12 -82
26 -148 30 -148 9 0 22 116 16 145 -2 11 -7 112 -11 225 -4 113 -8 212 -10
220 -1 8 -6 83 -9 165 -4 83 -10 158 -13 169 -9 31 15 8 39 -37z m29 -4 c13
-16 12 -17 -3 -4 -17 13 -22 21 -14 21 2 0 10 -8 17 -17z m-150 -82 c-22 -41
-106 -77 -198 -85 l-58 -5 66 14 c76 16 149 47 175 76 22 24 28 24 15 0z m557
-62 c43 -8 119 -10 214 -6 142 6 198 -3 102 -17 -122 -16 -322 -1 -388 30 -17
8 -23 12 -13 9 9 -2 48 -10 85 -16z m-1158 -18 c-13 -26 -27 -34 -35 -21 -11
18 3 40 25 40 17 0 19 -3 10 -19z m1248 -77 l43 -5 -47 -25 c-33 -18 -50 -22
-57 -15 -16 16 -44 13 -51 -4 -7 -19 -30 -19 -45 -1 -9 10 -9 16 -1 21 6 4 9
13 6 20 -9 24 14 26 152 9z m228 -84 c-8 -41 -14 -64 -15 -51 -1 33 22 160 26
141 2 -8 -3 -49 -11 -90z m-380 12 c20 -10 28 -8 44 8 11 11 21 18 21 15 1 -3
3 -9 4 -15 1 -5 3 -15 4 -21 0 -6 10 -4 23 5 32 23 38 20 27 -14 -10 -27 -29
-42 -29 -22 0 4 -16 8 -35 8 -57 0 -116 54 -100 90 8 16 10 14 13 -12 2 -22
11 -35 28 -42z m301 38 c59 -35 54 -109 -15 -230 -25 -43 -30 -49 -28 -27 1
15 10 35 19 45 10 10 15 21 12 24 -3 3 1 11 10 18 8 7 15 17 15 23 0 5 -10 2
-22 -9 l-22 -19 22 29 c44 57 15 138 -47 135 l-26 -2 26 -4 c15 -2 35 -14 45
-25 l19 -22 -25 17 c-31 21 -59 22 -89 1 -22 -16 -23 -16 -12 4 15 29 14 37
-5 21 -10 -8 -14 -23 -12 -41 4 -24 -7 -38 -28 -38 -7 0 -4 46 4 54 4 4 7 12
7 18 0 15 65 48 95 48 14 0 39 -9 57 -20z m-909 -42 c-9 -13 -24 -24 -34 -25
-16 -3 -15 -1 2 6 12 5 24 16 27 25 4 9 9 16 13 16 3 0 0 -10 -8 -22z m549 0
c-3 -8 -6 -5 -6 6 -1 11 2 17 5 13 3 -3 4 -12 1 -19z m-653 -3 c-4 -8 -8 -15
-10 -15 -2 0 -4 7 -4 15 0 8 4 15 10 15 5 0 7 -7 4 -15z m711 -25 c17 -11 53
-21 78 -22 32 -2 47 -7 47 -17 0 -9 7 -11 24 -7 22 5 24 2 29 -42 10 -85 -66
-441 -134 -634 -27 -75 -35 -88 -54 -88 -31 0 -58 -34 -57 -72 1 -26 -1 -29
-9 -16 -10 19 -39 14 -39 -7 0 -7 -15 -16 -34 -19 -49 -9 -79 -37 -79 -73 l0
-30 -33 21 c-18 12 -33 27 -34 34 0 6 -9 12 -20 12 -19 0 -20 7 -20 107 0 107
0 107 -32 142 -32 33 -32 34 -4 13 54 -41 91 -22 138 71 30 61 96 297 102 368
1 19 6 41 10 47 4 7 4 17 1 22 -3 6 -1 10 6 10 6 0 9 8 6 20 -3 12 -1 18 5 14
7 -5 9 4 6 24 -2 17 -1 29 3 27 4 -3 10 6 13 19 3 13 9 32 12 43 5 15 4 15 -5
3 -12 -17 -15 -2 -5 25 5 13 9 14 15 4 6 -11 9 -10 15 4 8 21 10 21 49 -3z
m208 0 c-3 -11 -10 -23 -16 -27 -5 -3 -8 -2 -5 3 3 5 8 17 11 27 9 24 16 22
10 -3z m-1216 -37 c-3 -10 -5 -2 -5 17 0 19 2 27 5 18 2 -10 2 -26 0 -35z
m1261 -17 c3 -14 0 -17 -13 -12 -9 3 -21 4 -26 0 -13 -8 10 -46 25 -41 7 3 19
1 27 -3 22 -14 -15 -24 -40 -11 -33 18 -42 45 -25 70 18 26 47 24 52 -3z
m-1239 -46 c0 -10 -3 -8 -9 5 -12 27 -12 43 0 25 5 -8 9 -22 9 -30z m1348 -7
c-3 -10 -5 -2 -5 17 0 19 2 27 5 18 2 -10 2 -26 0 -35z m-10 -70 c-3 -10 -5
-2 -5 17 0 19 2 27 5 18 2 -10 2 -26 0 -35z m-116 -16 c-6 -8 -8 -17 -4 -20 3
-4 1 -7 -6 -7 -7 0 -9 -4 -6 -10 3 -5 1 -10 -5 -10 -6 0 -8 -4 -5 -10 3 -5 1
-10 -4 -10 -6 0 -11 -7 -11 -17 0 -9 -3 -14 -6 -10 -9 8 13 67 33 89 19 21 31
25 14 5z m84 -167 c-70 -383 -207 -637 -436 -809 -76 -58 -201 -126 -244 -133
-17 -3 -19 2 -17 37 2 32 10 46 39 71 32 28 40 30 68 23 21 -6 43 -6 60 1 33
13 38 13 30 0 -15 -24 17 -5 90 54 216 174 329 390 402 769 15 81 29 143 31
138 2 -6 -8 -73 -23 -151z m-68 103 c-3 -10 -5 -4 -5 12 0 17 2 24 5 18 2 -7
2 -21 0 -30z m10 -38 c0 -8 -4 -12 -8 -9 -21 13 -23 -64 -4 -161 5 -21 3 -26
-3 -15 -6 8 -12 24 -14 35 -3 20 -16 35 -31 35 -4 0 -2 -10 4 -22 11 -21 11
-22 -4 -9 -10 7 -17 22 -17 33 0 15 5 18 21 13 18 -6 20 -5 10 14 -9 15 -9 21
-1 21 7 0 9 8 5 20 -4 12 -2 20 5 20 6 0 9 4 5 9 -4 7 13 24 31 31 0 0 1 -7 1
-15z m-1197 -119 c-5 -15 -7 -33 -4 -39 5 -9 3 -9 -6 0 -10 10 -11 18 0 43 16
37 25 34 10 -4z m1140 -67 c0 -5 4 -8 9 -4 12 7 19 -4 25 -38 2 -15 0 -27 -5
-27 -5 0 -9 5 -9 11 0 6 -9 24 -21 40 -11 16 -16 29 -10 29 6 0 11 -5 11 -11z
m-11 -55 c16 -20 21 -40 20 -78 l-2 -51 -6 51 c-6 51 -24 84 -44 84 -5 0 -2
-9 8 -20 9 -10 15 -26 12 -35 -4 -8 -2 -15 3 -15 6 0 10 -12 10 -26 l0 -25
-24 28 c-19 21 -21 29 -10 31 19 5 18 11 -8 31 -13 11 -19 24 -15 34 9 25 33
21 56 -9z m-1119 -74 c-7 -52 -7 -53 -9 -13 -1 36 7 80 14 71 1 -2 -1 -28 -5
-58z m1100 -93 c0 -42 -41 -147 -58 -147 -5 0 4 26 20 58 24 46 29 65 24 100
-4 27 -2 41 4 37 6 -3 10 -25 10 -48z m-1073 -9 c-3 -7 -5 -2 -5 12 0 14 2 19
5 13 2 -7 2 -19 0 -25z m918 -129 c10 -29 -9 -46 -31 -28 -14 12 -16 11 -13
-6 4 -19 69 -42 69 -24 0 10 60 42 66 36 8 -8 -70 -51 -99 -55 -52 -6 -81 44
-44 78 27 26 44 25 52 -1z m-684 -59 c-13 -11 -31 -20 -40 -20 -9 0 0 8 19 19
46 24 50 24 21 1z m593 -35 c10 -15 25 -25 39 -24 21 0 21 1 2 9 -15 7 -9 9
25 9 44 0 44 0 20 -14 -29 -16 -81 -19 -125 -6 -17 4 -40 4 -54 -1 -20 -7 -22
-13 -17 -39 4 -21 2 -28 -6 -23 -7 5 -8 3 -3 -5 5 -9 10 -10 18 -2 17 17 31
13 17 -4 -17 -21 -36 -19 -53 6 -29 40 10 93 68 93 22 0 35 5 35 13 0 21 16
15 34 -12z m-279 -26 c5 -14 12 -19 23 -15 15 5 15 4 0 -7 -10 -8 -24 -29 -32
-48 -12 -26 -15 -29 -16 -13 0 12 -10 34 -22 49 l-21 28 22 -13 c13 -6 21 -7
17 -2 -7 12 3 42 14 42 5 0 12 -9 15 -21z m247 -17 c16 -6 16 -9 -3 -39 -25
-40 -38 -42 -31 -6 4 23 2 25 -17 20 -20 -5 -29 11 -14 26 8 9 42 8 65 -1z
m-440 -34 c-8 -8 -9 -4 -5 13 4 13 8 18 11 10 2 -7 -1 -18 -6 -23z m60 -25
c-3 -16 -7 -22 -10 -15 -4 13 4 42 11 42 2 0 2 -12 -1 -27z m237 14 c8 -10 7
-18 -3 -32 -15 -20 -38 -12 -29 10 6 18 -1 19 -28 5 -22 -12 -26 -64 -6 -77
15 -9 67 -11 67 -1 0 4 -10 8 -22 10 -34 5 -35 34 -1 33 18 0 31 7 39 23 10
20 13 21 24 7 7 -8 21 -15 31 -15 11 0 19 -4 19 -10 0 -5 -7 -10 -16 -10 -9 0
-28 -10 -42 -22 -25 -19 -21 -20 23 -2 24 10 18 -23 -7 -40 -30 -21 -91 -20
-118 2 -27 22 -34 78 -14 110 16 25 65 30 83 9z m-449 -79 c0 -8 -37 26 -65
62 -11 14 0 7 23 -15 23 -21 42 -42 42 -47z m290 33 c0 -9 -7 -26 -16 -37 -14
-18 -15 -18 -4 5 7 12 10 32 7 42 -3 10 -1 17 4 13 5 -3 9 -13 9 -23z m340 19
c0 -5 -7 -10 -15 -10 -8 0 -27 -13 -42 -30 -32 -37 -47 -39 -31 -5 6 14 17 25
23 25 7 0 18 7 25 15 14 17 40 20 40 5z m-380 -55 c-7 -8 -16 -15 -21 -15 -5
0 -1 8 9 18 20 22 31 19 12 -3z m-129 -12 c13 -16 12 -17 -3 -4 -17 13 -22 21
-14 21 2 0 10 -8 17 -17z m106 -150 c89 -55 103 -68 30 -32 -68 35 -179 114
-217 154 -29 31 -23 28 33 -16 37 -30 106 -78 154 -106z m106 117 c3 -11 10
-20 17 -20 6 0 8 5 5 10 -3 6 -1 10 4 10 18 0 12 -20 -6 -27 -10 -4 -21 -11
-24 -16 -4 -6 -16 -3 -30 7 -13 9 -18 16 -12 16 6 0 15 9 18 20 3 11 10 20 15
20 4 0 10 -9 13 -20z"/>
<path d="M3416 2145 c-9 -26 -7 -32 5 -12 6 10 9 21 6 23 -2 3 -7 -2 -11 -11z"/>
<path d="M3340 2020 c0 -5 6 -10 14 -10 8 0 18 5 21 10 3 6 -3 10 -14 10 -12
0 -21 -4 -21 -10z"/>
<path d="M3415 1968 c-16 -18 -16 -20 -2 -9 25 20 33 6 12 -25 -9 -15 -12 -23
-6 -20 7 5 11 -3 12 -21 1 -23 3 -20 12 15 6 26 6 50 1 63 -9 20 -10 20 -29
-3z"/>
<path d="M3838 1453 c7 -3 16 -2 19 1 4 3 -2 6 -13 5 -11 0 -14 -3 -6 -6z"/>
<path d="M4121 1414 c0 -11 3 -14 6 -6 3 7 2 16 -1 19 -3 4 -6 -2 -5 -13z"/>
<path d="M1087 2925 c3 -38 10 -74 16 -80 7 -7 8 -6 4 1 -3 5 -7 36 -8 67 -1
31 -6 62 -10 69 -5 7 -6 -18 -2 -57z"/>
<path d="M4362 2740 c0 -19 3 -55 7 -80 11 -61 12 -4 1 65 -6 41 -7 44 -8 15z"/>
<path d="M1410 1950 c0 -5 10 -15 23 -21 22 -12 22 -12 3 10 -21 23 -26 26
-26 11z"/>
<path d="M2726 1229 c16 -173 34 -299 43 -299 5 0 2 30 -5 67 -7 37 -18 130
-25 208 -6 77 -15 143 -18 147 -4 5 -1 -51 5 -123z"/>
</g>
</svg>
